<?xml version="1.0" standalone="no"?><!DOCTYPE svg PUBLIC "-//W3C//DTD SVG 1.1//EN" "http://www.w3.org/Graphics/SVG/1.1/DTD/svg11.dtd"><svg t="1571302599822" class="icon" viewBox="0 0 1024 1024" version="1.1" xmlns="http://www.w3.org/2000/svg" p-id="20793" xmlns:xlink="http://www.w3.org/1999/xlink" width="128" height="128"><defs><style type="text/css"></style></defs><path d="M512 1024C229.2224 1024 0 794.7776 0 512S229.2224 0 512 0s512 229.2224 512 512-229.2224 512-512 512z m-144.1792-454.3488L327.7824 495.104c-14.7968-30.72-37.9904-39.7824-69.5808-27.0848-19.968 8.704-31.744 14.1312-35.1744 16.384-13.5168 11.6736-17.7152 28.8256-12.544 51.4048 7.7824 33.8432 69.12 170.0352 120.4736 220.7232 34.2016 33.792 64.3584 36.5056 90.4704 8.1408 11.9296-16.6912 23.4496-41.8304 34.6112-75.4688 16.6912-45.6704 82.5344-194.8672 251.1872-347.6992 13.9264-11.3664 32.4608-27.0848 55.5008-47.104 39.7312-30.1568 56.4736-47.7184 50.176-52.736-6.2976-5.12-25.7024-1.5872-58.2656 10.3936-156.4672 68.5056-279.0912 165.2736-367.872 290.3552l-18.944 27.2384z" fill="#1b82d1" p-id="20794"></path></svg>