<?xml version="1.0" standalone="no"?><!DOCTYPE svg PUBLIC "-//W3C//DTD SVG 1.1//EN" "http://www.w3.org/Graphics/SVG/1.1/DTD/svg11.dtd"><svg t="1571302862181" class="icon" viewBox="0 0 1024 1024" version="1.1" xmlns="http://www.w3.org/2000/svg" p-id="21707" xmlns:xlink="http://www.w3.org/1999/xlink" width="128" height="128"><defs><style type="text/css"></style></defs><path d="M512 1024A512 512 0 1 1 512 0a512 512 0 0 1 0 1024zM463.872 219.648l17.664 393.216h60.672l17.664-393.216h-96z m47.616 438.528a52.672 52.672 0 0 0-39.168 15.36 49.024 49.024 0 0 0-16.896 39.168 51.2 51.2 0 0 0 16.896 39.168 53.312 53.312 0 0 0 39.168 16.128c15.36 0 29.184-5.376 40.704-15.36a53.824 53.824 0 0 0 16.128-39.936 50.944 50.944 0 0 0-16.128-39.168c-10.752-10.752-24.576-15.36-40.704-15.36z" fill="#E83C3C" p-id="21708"></path></svg>