<?xml version="1.0" standalone="no"?><!DOCTYPE svg PUBLIC "-//W3C//DTD SVG 1.1//EN" "http://www.w3.org/Graphics/SVG/1.1/DTD/svg11.dtd"><svg t="1570181630378" class="icon" viewBox="0 0 1026 1024" version="1.1" xmlns="http://www.w3.org/2000/svg" p-id="10341" xmlns:xlink="http://www.w3.org/1999/xlink" width="128.25" height="128"><defs><style type="text/css"></style></defs><path d="M940.77199 235.52c-43.52 74.24-97.28 143.36-153.6 209.92-143.36 174.08-304.64 320-496.64 445.44-7.68 5.12-17.92 12.8-25.6 17.92-10.24 5.12-17.92 12.8-28.16 17.92 81.92 56.32 179.2 89.6 286.72 89.6 276.48 0 501.76-225.28 501.76-504.32 0-102.4-30.72-197.12-84.48-276.48z m-276.48 573.44c-17.92 0-33.28-15.36-33.28-33.28s15.36-33.28 33.28-33.28 33.28 15.36 33.28 33.28-15.36 33.28-33.28 33.28zM956.13199 209.92c20.48-38.4 53.76-97.28 35.84-151.04-10.24-25.6-28.16-38.4-40.96-43.52C904.93199 0 843.49199 38.4 833.25199 46.08c-12.8 7.68-15.36 23.04-7.68 35.84 7.68 12.8 23.04 15.36 35.84 7.68 20.48-12.8 56.32-30.72 74.24-23.04 2.56 0 5.12 2.56 7.68 10.24 10.24 30.72-15.36 76.8-33.28 110.08 0 0 0 2.56-2.56 2.56 12.8 15.36 23.04 28.16 33.28 43.52 5.12-7.68 10.24-12.8 15.36-23.04z" fill="#dbdbdb" p-id="10342"></path><path d="M106.21199 936.96c-17.92 5.12-38.4 2.56-48.64-7.68-10.24-10.24-5.12-25.6-2.56-38.4 15.36-35.84 35.84-71.68 51.2-92.16 25.6 35.84 53.76 66.56 84.48 94.72 15.36-7.68 28.16-17.92 40.96-28.16 10.24-5.12 17.92-12.8 28.16-17.92 189.44-122.88 348.16-263.68 486.4-435.2 58.88-71.68 115.2-145.92 161.28-222.72-92.16-110.08-230.4-181.76-386.56-181.76-279.04 0-504.32 225.28-504.32 504.32 0 87.04 23.04 168.96 61.44 240.64-10.24 15.36-46.08 64-69.12 120.32-15.36 35.84-10.24 69.12 10.24 92.16 15.36 17.92 40.96 28.16 69.12 28.16 10.24 0 23.04-2.56 33.28-5.12 40.96-12.8 79.36-35.84 112.64-58.88-15.36-10.24-28.16-20.48-43.52-33.28-25.6 15.36-53.76 30.72-84.48 40.96z m335.36-757.76c46.08 0 84.48 38.4 84.48 84.48 0 46.08-38.4 84.48-84.48 84.48-46.08 0-84.48-38.4-84.48-84.48 0-46.08 38.4-84.48 84.48-84.48z m-161.28 309.76c25.6 0 48.64 20.48 48.64 48.64 0 25.6-20.48 48.64-48.64 48.64-25.6-2.56-48.64-23.04-48.64-48.64s23.04-48.64 48.64-48.64z" fill="#dbdbdb" p-id="10343"></path></svg>