<?xml version="1.0" standalone="no"?><!DOCTYPE svg PUBLIC "-//W3C//DTD SVG 1.1//EN" "http://www.w3.org/Graphics/SVG/1.1/DTD/svg11.dtd"><svg t="1570689590492" class="icon" viewBox="0 0 1024 1024" version="1.1" xmlns="http://www.w3.org/2000/svg" p-id="5884" xmlns:xlink="http://www.w3.org/1999/xlink" width="128" height="128"><defs><style type="text/css"></style></defs><path d="M475.823968 546.626914a52.094285 52.094285 0 0 0 72.347912 0l460.955494-460.955494a50.373595 50.373595 0 0 0 0-71.037662 50.373595 50.373595 0 0 0-71.037662 0L511.990031 440.749225 85.89035 14.649544a50.373595 50.373595 0 0 0-71.037662 0 50.342023 50.342023 0 0 0 0 71.037662z" p-id="5885" fill="#bfbfbf"></path><path d="M1009.127374 477.373086a50.373595 50.373595 0 0 0-71.037662 0L511.990031 903.472767 85.89035 477.373086a50.373595 50.373595 0 0 0-71.037662 0 50.357809 50.357809 0 0 0 0 71.037662l460.955494 460.955494a52.094285 52.094285 0 0 0 72.347912 0l460.955493-460.955494a50.389381 50.389381 0 0 0 0-71.037662z" p-id="5886" fill="#bfbfbf"></path></svg>