<?xml version="1.0" standalone="no"?><!DOCTYPE svg PUBLIC "-//W3C//DTD SVG 1.1//EN" "http://www.w3.org/Graphics/SVG/1.1/DTD/svg11.dtd"><svg class="icon" width="128px" height="128.00px" viewBox="0 0 1024 1024" version="1.1" xmlns="http://www.w3.org/2000/svg"><path d="M511.722192 0C229.191536 0 0 229.191536 0 511.722192s229.191536 511.722192 511.722192 511.722192 511.722192-229.191536 511.722192-511.722192S794.252849 0 511.722192 0z" fill="#FFFFFF" /><path d="M511.722192 0.555616C229.191536 0.555616 0 229.747151 0 512.277808s229.191536 511.722192 511.722192 511.722192 511.722192-229.191536 511.722192-511.722192S794.252849 0.555616 511.722192 0.555616z m213.9121 644.236571c22.502442 22.641346 22.502442 59.173087 0 81.536625-11.251221 11.251221-25.975041 16.946283-40.698861 16.946283-14.72382 0-29.44764-5.556158-40.69886-16.946283l-132.514379-132.514379-132.653283 132.514379c-11.251221 11.251221-25.975041 16.946283-40.69886 16.946283-14.72382 0-29.44764-5.556158-40.698861-16.946283-22.502442-22.641346-22.502442-59.173087 0-81.536625l132.514379-132.375475-132.514379-132.653283c-22.502442-22.641346-22.502442-59.173087 0-81.536625s59.034183-22.502442 81.536625 0l132.514379 132.514379 132.653283-132.653283c22.502442-22.502442 59.034183-22.502442 81.536625 0 22.502442 22.641346 22.502442 59.173087 0 81.536625l-132.653283 132.514379 132.375475 132.653283z" fill="#FF4141" /></svg>